# xmcd CD database file
#
# Track frame offsets:
#	187
#	21897
#	45252
#	69647
#	91575
#	113130
#	141702
#	166067
#	187025
#	210100
#
# Disc length: 3170 seconds
#
# Revision: 0
# Processed by: cddbd v1.5PL3 Copyright (c) Steve Scherf et al.
# Submitted via: CDex 1.50beta9
#
DISCID=7e0c600a
DTITLE=Tom Scott - tomSCOtt
DYEAR=1900
DGENRE=Jazz
TTITLE0=Desire
TTITLE1=Morning Rays
TTITLE2=Sarah, Sarah
TTITLE3=Bhop
TTITLE4=Hollywood Walk
TTITLE5=Children of the Night
TTITLE6=Jungle Wave
TTITLE7=Too Hot
TTITLE8=Anytime, Anyplace
TTITLE9=Body and Soul
EXTD=
EXTT0=
EXTT1=
EXTT2=
EXTT3=
EXTT4=
EXTT5=
EXTT6=
EXTT7=
EXTT8=
EXTT9=
PLAYORDER=
